<?xml version="1.0" encoding="UTF-8" standalone="no"?>
<svg
   viewBox="0 0 331776 262144"
   version="1.1"
   id="svg19"
   sodipodi:docname="video-solid.svg"
   width="331776"
   height="262144"
   xmlns:inkscape="http://www.inkscape.org/namespaces/inkscape"
   xmlns:sodipodi="http://sodipodi.sourceforge.net/DTD/sodipodi-0.dtd"
   xmlns="http://www.w3.org/2000/svg"
   xmlns:svg="http://www.w3.org/2000/svg">
  <defs
     id="defs23" />
  <sodipodi:namedview
     id="namedview21"
     pagecolor="#ffffff"
     bordercolor="#000000"
     borderopacity="0.25"
     inkscape:showpageshadow="2"
     inkscape:pageopacity="0.0"
     inkscape:pagecheckerboard="0"
     inkscape:deskcolor="#d1d1d1"
     showgrid="false" />
  <!--! Font Awesome Pro 6.2.1 by @fontawesome - https://fontawesome.com License - https://fontawesome.com/license (Commercial License) Copyright 2022 Fonticons, Inc. -->
  <path
     d="M 0,128 C 0,92.7 28.7,64 64,64 h 256 c 35.3,0 64,28.7 64,64 v 256 c 0,35.3 -28.7,64 -64,64 H 64 C 28.7,448 0,419.3 0,384 Z M 559.1,99.8 c 10.4,5.6 16.9,16.4 16.9,28.2 v 256 c 0,11.8 -6.5,22.6 -16.9,28.2 -10.4,5.6 -23,5 -32.9,-1.6 l -96,-64 -14.2,-9.5 V 320 192 174.9 l 14.2,-9.5 96,-64 c 9.8,-6.5 22.4,-7.2 32.9,-1.6 z"
     id="path17" />
</svg>
